<svg width="15" height="15" viewBox="0 0 15 15" fill="none" xmlns="http://www.w3.org/2000/svg">
<path d="M11.0721 0.0414104C10.6598 0.13148 10.2619 0.314525 9.93957 0.561491C9.71597 0.735819 1.91301 8.58061 1.70393 8.84501C1.15217 9.53941 0.873394 10.4082 0.914049 11.3118C0.940185 11.8725 1.04473 12.2938 1.28576 12.7965C1.70102 13.6652 2.4909 14.3625 3.41436 14.6763C3.84125 14.8216 4.1723 14.8739 4.63693 14.8739C5.42391 14.8739 6.07149 14.6792 6.72779 14.2405C7.06465 14.0168 7.02109 14.0603 11.7052 9.34765C13.9906 7.04942 14.8037 6.21264 14.8444 6.12257C15.036 5.69837 14.734 5.22769 14.2694 5.22769C14.0196 5.22769 13.8948 5.31776 13.2762 5.94534C12.9655 6.26204 11.2464 7.9908 9.45461 9.78929C7.0298 12.227 6.14699 13.0957 5.99599 13.1974C5.75496 13.3572 5.45585 13.4909 5.18288 13.5577C4.89248 13.6274 4.32911 13.6216 4.0271 13.5403C3.19076 13.3194 2.53446 12.6802 2.26439 11.8231C2.20631 11.6343 2.1976 11.5471 2.1976 11.1549C2.1976 10.7655 2.20631 10.6755 2.26439 10.4895C2.36313 10.1786 2.488 9.92875 2.65933 9.70212C2.88294 9.40286 10.6104 1.63942 10.8166 1.50577C11.2028 1.2559 11.7081 1.19198 12.135 1.34306C13.0352 1.65686 13.4243 2.66215 12.9771 3.52798C12.9016 3.67616 12.4167 4.1759 9.64917 6.95063C7.86614 8.7375 6.35317 10.2396 6.28638 10.2861C5.96114 10.5127 5.50231 10.3559 5.37744 9.97814C5.33098 9.83287 5.35712 9.60915 5.43843 9.49002C5.47327 9.43772 6.21959 8.67649 7.09369 7.79903C8.7896 6.09933 8.77508 6.11386 8.77508 5.84074C8.77508 5.67804 8.6386 5.43398 8.4934 5.33228C8.3482 5.23059 8.09555 5.19863 7.91551 5.25674C7.82548 5.2858 7.47701 5.61702 6.16732 6.92449C4.3959 8.69102 4.30878 8.7898 4.16939 9.21691C4.06775 9.52198 4.05614 10.0188 4.14035 10.2977C4.33492 10.9428 4.80536 11.4134 5.45004 11.6081C5.57782 11.6459 5.7143 11.6604 5.95824 11.6604C6.37641 11.6575 6.6639 11.5732 6.98043 11.3582C7.26212 11.1694 13.7583 4.66693 13.9441 4.39091C14.1155 4.12942 14.2491 3.84759 14.342 3.55123C14.4146 3.31588 14.4204 3.25777 14.4204 2.78709C14.4204 2.3164 14.4146 2.25829 14.342 2.02295C14.191 1.53483 13.9674 1.15421 13.6247 0.811362C13.2298 0.416217 12.7187 0.140197 12.1989 0.0414104C11.9085 -0.0137937 11.3277 -0.0137937 11.0721 0.0414104Z" fill="#BBBBBB"/>
</svg>
