<svg width="339" height="113" viewBox="0 0 339 113" fill="none" xmlns="http://www.w3.org/2000/svg">
<path d="M5.916 66V18.4H26.52C30.7813 18.4 34.4533 19.1027 37.536 20.508C40.6187 21.868 42.9987 23.84 44.676 26.424C46.3533 29.008 47.192 32.0907 47.192 35.672C47.192 39.208 46.3533 42.268 44.676 44.852C42.9987 47.436 40.6187 49.4307 37.536 50.836C34.4533 52.196 30.7813 52.876 26.52 52.876H12.036L16.932 47.912V66H5.916ZM16.932 49.136L12.036 43.9H25.908C29.308 43.9 31.8467 43.1747 33.524 41.724C35.2013 40.2733 36.04 38.256 36.04 35.672C36.04 33.0427 35.2013 31.0027 33.524 29.552C31.8467 28.1013 29.308 27.376 25.908 27.376H12.036L16.932 22.14V49.136ZM54.459 66V18.4H63.571L83.835 51.992H79.007L98.931 18.4H108.043L108.111 66H97.775L97.707 34.244H99.679L83.699 60.968H78.803L62.483 34.244H64.795V66H54.459ZM142.444 66.816C138.772 66.816 135.349 66.2267 132.176 65.048C129.048 63.824 126.328 62.1013 124.016 59.88C121.704 57.6587 119.89 55.052 118.576 52.06C117.306 49.068 116.672 45.7813 116.672 42.2C116.672 38.6187 117.306 35.332 118.576 32.34C119.89 29.348 121.704 26.7413 124.016 24.52C126.373 22.2987 129.116 20.5987 132.244 19.42C135.372 18.196 138.794 17.584 142.512 17.584C146.637 17.584 150.354 18.3093 153.664 19.76C157.018 21.1653 159.829 23.2507 162.096 26.016L155.024 32.544C153.392 30.6853 151.578 29.3027 149.584 28.396C147.589 27.444 145.413 26.968 143.056 26.968C140.834 26.968 138.794 27.3307 136.936 28.056C135.077 28.7813 133.468 29.824 132.108 31.184C130.748 32.544 129.682 34.1533 128.912 36.012C128.186 37.8707 127.824 39.9333 127.824 42.2C127.824 44.4667 128.186 46.5293 128.912 48.388C129.682 50.2467 130.748 51.856 132.108 53.216C133.468 54.576 135.077 55.6187 136.936 56.344C138.794 57.0693 140.834 57.432 143.056 57.432C145.413 57.432 147.589 56.9787 149.584 56.072C151.578 55.12 153.392 53.692 155.024 51.788L162.096 58.316C159.829 61.0813 157.018 63.1893 153.664 64.64C150.354 66.0907 146.614 66.816 142.444 66.816ZM175.283 66V35.672L177.663 38.12H162.907V29.416H198.199V38.12H183.443L185.823 35.672V66H175.283ZM225.41 66.544C222.327 66.544 219.63 65.864 217.318 64.504C215.006 63.144 213.193 61.0813 211.878 58.316C210.609 55.5053 209.974 51.9693 209.974 47.708C209.974 43.4013 210.586 39.8653 211.81 37.1C213.034 34.3347 214.802 32.272 217.114 30.912C219.426 29.552 222.191 28.872 225.41 28.872C228.855 28.872 231.938 29.6653 234.658 31.252C237.423 32.7933 239.599 34.9693 241.186 37.78C242.818 40.5907 243.634 43.9 243.634 47.708C243.634 51.5613 242.818 54.8933 241.186 57.704C239.599 60.5147 237.423 62.6907 234.658 64.232C231.938 65.7733 228.855 66.544 225.41 66.544ZM203.786 79.192V29.416H213.918V36.896L213.714 47.776L214.394 58.588V79.192H203.786ZM223.574 57.84C225.342 57.84 226.906 57.432 228.266 56.616C229.671 55.8 230.782 54.644 231.598 53.148C232.459 51.6067 232.89 49.7933 232.89 47.708C232.89 45.5773 232.459 43.764 231.598 42.268C230.782 40.772 229.671 39.616 228.266 38.8C226.906 37.984 225.342 37.576 223.574 37.576C221.806 37.576 220.219 37.984 218.814 38.8C217.409 39.616 216.298 40.772 215.482 42.268C214.666 43.764 214.258 45.5773 214.258 47.708C214.258 49.7933 214.666 51.6067 215.482 53.148C216.298 54.644 217.409 55.8 218.814 56.616C220.219 57.432 221.806 57.84 223.574 57.84ZM268.205 66.544C264.306 66.544 260.838 65.728 257.801 64.096C254.809 62.464 252.429 60.2427 250.661 57.432C248.938 54.576 248.077 51.3347 248.077 47.708C248.077 44.036 248.938 40.7947 250.661 37.984C252.429 35.128 254.809 32.9067 257.801 31.32C260.838 29.688 264.306 28.872 268.205 28.872C272.058 28.872 275.503 29.688 278.541 31.32C281.578 32.9067 283.958 35.1053 285.681 37.916C287.403 40.7267 288.265 43.9907 288.265 47.708C288.265 51.3347 287.403 54.576 285.681 57.432C283.958 60.2427 281.578 62.464 278.541 64.096C275.503 65.728 272.058 66.544 268.205 66.544ZM268.205 57.84C269.973 57.84 271.559 57.432 272.965 56.616C274.37 55.8 275.481 54.644 276.297 53.148C277.113 51.6067 277.521 49.7933 277.521 47.708C277.521 45.5773 277.113 43.764 276.297 42.268C275.481 40.772 274.37 39.616 272.965 38.8C271.559 37.984 269.973 37.576 268.205 37.576C266.437 37.576 264.85 37.984 263.445 38.8C262.039 39.616 260.906 40.772 260.045 42.268C259.229 43.764 258.821 45.5773 258.821 47.708C258.821 49.7933 259.229 51.6067 260.045 53.148C260.906 54.644 262.039 55.8 263.445 56.616C264.85 57.432 266.437 57.84 268.205 57.84ZM295.561 66V29.416H306.101V51.176L323.917 29.416H333.641V66H323.101V44.24L305.353 66H295.561ZM313.921 25.472C309.932 25.472 306.94 24.6107 304.945 22.888C302.95 21.12 301.93 18.468 301.885 14.932H308.821C308.866 16.4733 309.297 17.6973 310.113 18.604C310.929 19.5107 312.176 19.964 313.853 19.964C315.485 19.964 316.732 19.5107 317.593 18.604C318.5 17.6973 318.953 16.4733 318.953 14.932H326.025C326.025 18.468 325.005 21.12 322.965 22.888C320.925 24.6107 317.91 25.472 313.921 25.472Z" fill="url(#paint0_linear_166_428)"/>
<path d="M10.944 107.192C9.552 107.192 8.312 106.912 7.224 106.352C6.136 105.776 5.28 104.984 4.656 103.976C4.048 102.968 3.744 101.824 3.744 100.544C3.744 99.248 4.048 98.104 4.656 97.112C5.28 96.104 6.136 95.32 7.224 94.76C8.312 94.184 9.552 93.896 10.944 93.896C12.304 93.896 13.488 94.184 14.496 94.76C15.504 95.32 16.248 96.128 16.728 97.184L13.824 98.744C13.488 98.136 13.064 97.688 12.552 97.4C12.056 97.112 11.512 96.968 10.92 96.968C10.28 96.968 9.704 97.112 9.192 97.4C8.68 97.688 8.272 98.096 7.968 98.624C7.68 99.152 7.536 99.792 7.536 100.544C7.536 101.296 7.68 101.936 7.968 102.464C8.272 102.992 8.68 103.4 9.192 103.688C9.704 103.976 10.28 104.12 10.92 104.12C11.512 104.12 12.056 103.984 12.552 103.712C13.064 103.424 13.488 102.968 13.824 102.344L16.728 103.928C16.248 104.968 15.504 105.776 14.496 106.352C13.488 106.912 12.304 107.192 10.944 107.192ZM21.7397 107V96.296L22.5797 97.16H17.3717V94.088H29.8277V97.16H24.6197L25.4597 96.296V107H21.7397ZM37.3324 107.192C35.9564 107.192 34.7324 106.904 33.6604 106.328C32.6044 105.752 31.7644 104.968 31.1404 103.976C30.5324 102.968 30.2284 101.824 30.2284 100.544C30.2284 99.248 30.5324 98.104 31.1404 97.112C31.7644 96.104 32.6044 95.32 33.6604 94.76C34.7324 94.184 35.9564 93.896 37.3324 93.896C38.6924 93.896 39.9084 94.184 40.9804 94.76C42.0524 95.32 42.8924 96.096 43.5004 97.088C44.1084 98.08 44.4124 99.232 44.4124 100.544C44.4124 101.824 44.1084 102.968 43.5004 103.976C42.8924 104.968 42.0524 105.752 40.9804 106.328C39.9084 106.904 38.6924 107.192 37.3324 107.192ZM37.3324 104.12C37.9564 104.12 38.5164 103.976 39.0124 103.688C39.5084 103.4 39.9004 102.992 40.1884 102.464C40.4764 101.92 40.6204 101.28 40.6204 100.544C40.6204 99.792 40.4764 99.152 40.1884 98.624C39.9004 98.096 39.5084 97.688 39.0124 97.4C38.5164 97.112 37.9564 96.968 37.3324 96.968C36.7084 96.968 36.1484 97.112 35.6524 97.4C35.1564 97.688 34.7564 98.096 34.4524 98.624C34.1644 99.152 34.0204 99.792 34.0204 100.544C34.0204 101.28 34.1644 101.92 34.4524 102.464C34.7564 102.992 35.1564 103.4 35.6524 103.688C36.1484 103.976 36.7084 104.12 37.3324 104.12ZM54.5955 107.192C53.5075 107.192 52.5555 106.952 51.7395 106.472C50.9235 105.992 50.2835 105.264 49.8195 104.288C49.3715 103.296 49.1475 102.048 49.1475 100.544C49.1475 99.024 49.3635 97.776 49.7955 96.8C50.2275 95.824 50.8515 95.096 51.6675 94.616C52.4835 94.136 53.4595 93.896 54.5955 93.896C55.8115 93.896 56.8995 94.176 57.8595 94.736C58.8355 95.28 59.6035 96.048 60.1635 97.04C60.7395 98.032 61.0275 99.2 61.0275 100.544C61.0275 101.904 60.7395 103.08 60.1635 104.072C59.6035 105.064 58.8355 105.832 57.8595 106.376C56.8995 106.92 55.8115 107.192 54.5955 107.192ZM46.9635 111.656V94.088H50.5395V96.728L50.4675 100.568L50.7075 104.384V111.656H46.9635ZM53.9475 104.12C54.5715 104.12 55.1235 103.976 55.6035 103.688C56.0995 103.4 56.4915 102.992 56.7795 102.464C57.0835 101.92 57.2355 101.28 57.2355 100.544C57.2355 99.792 57.0835 99.152 56.7795 98.624C56.4915 98.096 56.0995 97.688 55.6035 97.4C55.1235 97.112 54.5715 96.968 53.9475 96.968C53.3235 96.968 52.7635 97.112 52.2675 97.4C51.7715 97.688 51.3795 98.096 51.0915 98.624C50.8035 99.152 50.6595 99.792 50.6595 100.544C50.6595 101.28 50.8035 101.92 51.0915 102.464C51.3795 102.992 51.7715 103.4 52.2675 103.688C52.7635 103.976 53.3235 104.12 53.9475 104.12ZM69.6996 107.192C68.3236 107.192 67.0996 106.904 66.0276 106.328C64.9716 105.752 64.1316 104.968 63.5076 103.976C62.8996 102.968 62.5956 101.824 62.5956 100.544C62.5956 99.248 62.8996 98.104 63.5076 97.112C64.1316 96.104 64.9716 95.32 66.0276 94.76C67.0996 94.184 68.3236 93.896 69.6996 93.896C71.0596 93.896 72.2756 94.184 73.3476 94.76C74.4196 95.32 75.2596 96.096 75.8676 97.088C76.4756 98.08 76.7796 99.232 76.7796 100.544C76.7796 101.824 76.4756 102.968 75.8676 103.976C75.2596 104.968 74.4196 105.752 73.3476 106.328C72.2756 106.904 71.0596 107.192 69.6996 107.192ZM69.6996 104.12C70.3236 104.12 70.8836 103.976 71.3796 103.688C71.8756 103.4 72.2676 102.992 72.5556 102.464C72.8436 101.92 72.9876 101.28 72.9876 100.544C72.9876 99.792 72.8436 99.152 72.5556 98.624C72.2676 98.096 71.8756 97.688 71.3796 97.4C70.8836 97.112 70.3236 96.968 69.6996 96.968C69.0756 96.968 68.5156 97.112 68.0196 97.4C67.5236 97.688 67.1236 98.096 66.8196 98.624C66.5316 99.152 66.3876 99.792 66.3876 100.544C66.3876 101.28 66.5316 101.92 66.8196 102.464C67.1236 102.992 67.5236 103.4 68.0196 103.688C68.5156 103.976 69.0756 104.12 69.6996 104.12ZM79.3547 107V94.088H83.0747V101.768L89.3627 94.088H92.7947V107H89.0747V99.32L82.8107 107H79.3547ZM99.1538 107V96.296L99.9938 97.16H94.7858V94.088H107.242V97.16H102.034L102.874 96.296V107H99.1538ZM115.01 107.192C113.538 107.192 112.242 106.904 111.122 106.328C110.018 105.752 109.162 104.968 108.554 103.976C107.946 102.968 107.642 101.824 107.642 100.544C107.642 99.248 107.938 98.104 108.53 97.112C109.138 96.104 109.962 95.32 111.002 94.76C112.042 94.184 113.218 93.896 114.53 93.896C115.794 93.896 116.93 94.168 117.938 94.712C118.962 95.24 119.77 96.008 120.362 97.016C120.954 98.008 121.25 99.2 121.25 100.592C121.25 100.736 121.242 100.904 121.226 101.096C121.21 101.272 121.194 101.44 121.178 101.6H110.69V99.416H119.21L117.77 100.064C117.77 99.392 117.634 98.808 117.362 98.312C117.09 97.816 116.714 97.432 116.234 97.16C115.754 96.872 115.194 96.728 114.554 96.728C113.914 96.728 113.346 96.872 112.85 97.16C112.37 97.432 111.994 97.824 111.722 98.336C111.45 98.832 111.314 99.424 111.314 100.112V100.688C111.314 101.392 111.466 102.016 111.77 102.56C112.09 103.088 112.53 103.496 113.09 103.784C113.666 104.056 114.338 104.192 115.106 104.192C115.794 104.192 116.394 104.088 116.906 103.88C117.434 103.672 117.914 103.36 118.346 102.944L120.338 105.104C119.746 105.776 119.002 106.296 118.106 106.664C117.21 107.016 116.178 107.192 115.01 107.192ZM122.371 106.976L122.563 103.904C122.659 103.92 122.755 103.936 122.851 103.952C122.947 103.952 123.035 103.952 123.115 103.952C123.563 103.952 123.915 103.824 124.171 103.568C124.427 103.312 124.619 102.968 124.747 102.536C124.875 102.088 124.963 101.584 125.011 101.024C125.075 100.464 125.123 99.88 125.155 99.272L125.347 94.088H136.387V107H132.643V96.248L133.483 97.16H127.819L128.611 96.2L128.443 99.44C128.395 100.592 128.299 101.648 128.155 102.608C128.027 103.568 127.811 104.4 127.507 105.104C127.203 105.792 126.795 106.328 126.283 106.712C125.771 107.08 125.115 107.264 124.315 107.264C124.027 107.264 123.723 107.24 123.403 107.192C123.083 107.144 122.739 107.072 122.371 106.976ZM146.972 98.216C148.668 98.232 149.956 98.616 150.836 99.368C151.732 100.104 152.18 101.152 152.18 102.512C152.18 103.936 151.676 105.048 150.668 105.848C149.66 106.632 148.26 107.024 146.468 107.024L139.988 107V94.088H143.708V98.216H146.972ZM146.132 104.36C146.852 104.376 147.404 104.224 147.788 103.904C148.172 103.584 148.364 103.104 148.364 102.464C148.364 101.824 148.172 101.368 147.788 101.096C147.404 100.808 146.852 100.656 146.132 100.64L143.708 100.616V104.36H146.132ZM154.519 107V94.088H158.239V99.128H163.855V94.088H167.599V107H163.855V102.176H158.239V107H154.519ZM178.911 107V104.48L178.671 103.928V99.416C178.671 98.616 178.423 97.992 177.927 97.544C177.447 97.096 176.703 96.872 175.695 96.872C175.007 96.872 174.327 96.984 173.655 97.208C172.999 97.416 172.439 97.704 171.975 98.072L170.631 95.456C171.335 94.96 172.183 94.576 173.175 94.304C174.167 94.032 175.175 93.896 176.199 93.896C178.167 93.896 179.695 94.36 180.783 95.288C181.871 96.216 182.415 97.664 182.415 99.632V107H178.911ZM174.975 107.192C173.967 107.192 173.103 107.024 172.383 106.688C171.663 106.336 171.111 105.864 170.727 105.272C170.343 104.68 170.151 104.016 170.151 103.28C170.151 102.512 170.335 101.84 170.703 101.264C171.087 100.688 171.687 100.24 172.503 99.92C173.319 99.584 174.383 99.416 175.695 99.416H179.127V101.6H176.103C175.223 101.6 174.615 101.744 174.279 102.032C173.959 102.32 173.799 102.68 173.799 103.112C173.799 103.592 173.983 103.976 174.351 104.264C174.735 104.536 175.255 104.672 175.911 104.672C176.535 104.672 177.095 104.528 177.591 104.24C178.087 103.936 178.447 103.496 178.671 102.92L179.247 104.648C178.975 105.48 178.479 106.112 177.759 106.544C177.039 106.976 176.111 107.192 174.975 107.192ZM193.803 107V102.704L194.331 103.304H190.755C188.899 103.304 187.443 102.92 186.387 102.152C185.331 101.384 184.803 100.28 184.803 98.84C184.803 97.304 185.355 96.128 186.459 95.312C187.579 94.496 189.083 94.088 190.971 94.088H197.139V107H193.803ZM184.611 107L188.043 102.08H191.859L188.595 107H184.611ZM193.803 101.552V96.176L194.331 97.136H191.043C190.275 97.136 189.675 97.28 189.243 97.568C188.827 97.856 188.619 98.32 188.619 98.96C188.619 100.192 189.411 100.808 190.995 100.808H194.331L193.803 101.552ZM216.678 107L212.358 100.88L215.406 99.08L221.094 107H216.678ZM207.534 107V94.088H211.278V107H207.534ZM210.174 102.104V99.104H214.686V102.104H210.174ZM215.766 100.976L212.262 100.592L216.798 94.088H220.782L215.766 100.976ZM228.582 107.192C227.206 107.192 225.982 106.904 224.91 106.328C223.854 105.752 223.014 104.968 222.39 103.976C221.782 102.968 221.478 101.824 221.478 100.544C221.478 99.248 221.782 98.104 222.39 97.112C223.014 96.104 223.854 95.32 224.91 94.76C225.982 94.184 227.206 93.896 228.582 93.896C229.942 93.896 231.158 94.184 232.23 94.76C233.302 95.32 234.142 96.096 234.75 97.088C235.358 98.08 235.662 99.232 235.662 100.544C235.662 101.824 235.358 102.968 234.75 103.976C234.142 104.968 233.302 105.752 232.23 106.328C231.158 106.904 229.942 107.192 228.582 107.192ZM228.582 104.12C229.206 104.12 229.766 103.976 230.262 103.688C230.758 103.4 231.15 102.992 231.438 102.464C231.726 101.92 231.87 101.28 231.87 100.544C231.87 99.792 231.726 99.152 231.438 98.624C231.15 98.096 230.758 97.688 230.262 97.4C229.766 97.112 229.206 96.968 228.582 96.968C227.958 96.968 227.398 97.112 226.902 97.4C226.406 97.688 226.006 98.096 225.702 98.624C225.414 99.152 225.27 99.792 225.27 100.544C225.27 101.28 225.414 101.92 225.702 102.464C226.006 102.992 226.406 103.4 226.902 103.688C227.398 103.976 227.958 104.12 228.582 104.12ZM238.238 107V94.088H242.15L247.022 102.92H245.462L250.67 94.088H254.174L254.222 107H250.838V97.928L251.414 98.312L246.974 105.752H245.39L240.926 98.048L241.622 97.88V107H238.238ZM257.808 107V94.088H270.648V107H266.904V96.32L267.744 97.16H260.688L261.528 96.32V107H257.808ZM281.966 107V104.48L281.726 103.928V99.416C281.726 98.616 281.478 97.992 280.982 97.544C280.502 97.096 279.758 96.872 278.75 96.872C278.062 96.872 277.382 96.984 276.71 97.208C276.054 97.416 275.494 97.704 275.03 98.072L273.686 95.456C274.39 94.96 275.238 94.576 276.23 94.304C277.222 94.032 278.23 93.896 279.254 93.896C281.222 93.896 282.75 94.36 283.838 95.288C284.926 96.216 285.47 97.664 285.47 99.632V107H281.966ZM278.03 107.192C277.022 107.192 276.158 107.024 275.438 106.688C274.718 106.336 274.166 105.864 273.782 105.272C273.398 104.68 273.206 104.016 273.206 103.28C273.206 102.512 273.39 101.84 273.758 101.264C274.142 100.688 274.742 100.24 275.558 99.92C276.374 99.584 277.438 99.416 278.75 99.416H282.182V101.6H279.158C278.278 101.6 277.67 101.744 277.334 102.032C277.014 102.32 276.854 102.68 276.854 103.112C276.854 103.592 277.038 103.976 277.406 104.264C277.79 104.536 278.31 104.672 278.966 104.672C279.59 104.672 280.15 104.528 280.646 104.24C281.142 103.936 281.502 103.496 281.726 102.92L282.302 104.648C282.03 105.48 281.534 106.112 280.814 106.544C280.094 106.976 279.166 107.192 278.03 107.192ZM288.722 107V94.088H292.442V99.128H298.058V94.088H301.802V107H298.058V102.176H292.442V107H288.722ZM305.386 107V94.088H309.106V101.768L315.394 94.088H318.826V107H315.106V99.32L308.842 107H305.386ZM330.561 107V102.704L331.089 103.304H327.513C325.657 103.304 324.201 102.92 323.145 102.152C322.089 101.384 321.561 100.28 321.561 98.84C321.561 97.304 322.113 96.128 323.217 95.312C324.337 94.496 325.841 94.088 327.729 94.088H333.897V107H330.561ZM321.369 107L324.801 102.08H328.617L325.353 107H321.369ZM330.561 101.552V96.176L331.089 97.136H327.801C327.033 97.136 326.433 97.28 326.001 97.568C325.585 97.856 325.377 98.32 325.377 98.96C325.377 100.192 326.169 100.808 327.753 100.808H331.089L330.561 101.552Z" fill="url(#paint1_linear_166_428)"/>
<line x1="3" y1="86" x2="336" y2="86" stroke="url(#paint2_linear_166_428)" stroke-width="2"/>
<defs>
<linearGradient id="paint0_linear_166_428" x1="339" y1="83" x2="-0.0487536" y2="0.199635" gradientUnits="userSpaceOnUse">
<stop offset="0.49337" stop-color="#590D3C"/>
<stop offset="1" stop-color="#BF1C81"/>
</linearGradient>
<linearGradient id="paint1_linear_166_428" x1="336" y1="113" x2="96.1529" y2="-51.6756" gradientUnits="userSpaceOnUse">
<stop offset="0.49337" stop-color="#590D3C"/>
<stop offset="1" stop-color="#BF1C81"/>
</linearGradient>
<linearGradient id="paint2_linear_166_428" x1="336" y1="87" x2="3" y2="87" gradientUnits="userSpaceOnUse">
<stop stop-color="#590D3C"/>
<stop offset="1" stop-color="#BF1C81"/>
</linearGradient>
</defs>
</svg>
