<svg width="266" height="53" viewBox="0 0 266 53" fill="none" xmlns="http://www.w3.org/2000/svg">
<path d="M0.785 42V3.5H17.45C20.8967 3.5 23.8667 4.06833 26.36 5.205C28.8533 6.305 30.7783 7.9 32.135 9.99C33.4917 12.08 34.17 14.5733 34.17 17.47C34.17 20.33 33.4917 22.805 32.135 24.895C30.7783 26.985 28.8533 28.5983 26.36 29.735C23.8667 30.835 20.8967 31.385 17.45 31.385H5.735L9.695 27.37V42H0.785ZM9.695 28.36L5.735 24.125H16.955C19.705 24.125 21.7583 23.5383 23.115 22.365C24.4717 21.1917 25.15 19.56 25.15 17.47C25.15 15.3433 24.4717 13.6933 23.115 12.52C21.7583 11.3467 19.705 10.76 16.955 10.76H5.735L9.695 6.525V28.36ZM40.0477 42V3.5H47.4177L63.8077 30.67H59.9027L76.0177 3.5H83.3877L83.4427 42H75.0827L75.0277 16.315H76.6227L63.6977 37.93H59.7377L46.5377 16.315H48.4077V42H40.0477ZM111.212 42.66C108.242 42.66 105.473 42.1833 102.907 41.23C100.377 40.24 98.1767 38.8467 96.3067 37.05C94.4367 35.2533 92.97 33.145 91.9067 30.725C90.88 28.305 90.3667 25.6467 90.3667 22.75C90.3667 19.8533 90.88 17.195 91.9067 14.775C92.97 12.355 94.4367 10.2467 96.3067 8.45C98.2133 6.65333 100.432 5.27833 102.962 4.325C105.492 3.335 108.26 2.84 111.267 2.84C114.603 2.84 117.61 3.42667 120.287 4.6C123 5.73666 125.273 7.42333 127.107 9.66L121.387 14.94C120.067 13.4367 118.6 12.3183 116.987 11.585C115.373 10.815 113.613 10.43 111.707 10.43C109.91 10.43 108.26 10.7233 106.757 11.31C105.253 11.8967 103.952 12.74 102.852 13.84C101.752 14.94 100.89 16.2417 100.267 17.745C99.68 19.2483 99.3867 20.9167 99.3867 22.75C99.3867 24.5833 99.68 26.2517 100.267 27.755C100.89 29.2583 101.752 30.56 102.852 31.66C103.952 32.76 105.253 33.6033 106.757 34.19C108.26 34.7767 109.91 35.07 111.707 35.07C113.613 35.07 115.373 34.7033 116.987 33.97C118.6 33.2 120.067 32.045 121.387 30.505L127.107 35.785C125.273 38.0217 123 39.7267 120.287 40.9C117.61 42.0733 114.585 42.66 111.212 42.66ZM137.773 42V17.47L139.698 19.45H127.763V12.41H156.308V19.45H144.373L146.298 17.47V42H137.773ZM178.317 42.44C175.824 42.44 173.642 41.89 171.772 40.79C169.902 39.69 168.435 38.0217 167.372 35.785C166.345 33.5117 165.832 30.6517 165.832 27.205C165.832 23.7217 166.327 20.8617 167.317 18.625C168.307 16.3883 169.737 14.72 171.607 13.62C173.477 12.52 175.714 11.97 178.317 11.97C181.104 11.97 183.597 12.6117 185.797 13.895C188.034 15.1417 189.794 16.9017 191.077 19.175C192.397 21.4483 193.057 24.125 193.057 27.205C193.057 30.3217 192.397 33.0167 191.077 35.29C189.794 37.5633 188.034 39.3233 185.797 40.57C183.597 41.8167 181.104 42.44 178.317 42.44ZM160.827 52.67V12.41H169.022V18.46L168.857 27.26L169.407 36.005V52.67H160.827ZM176.832 35.4C178.262 35.4 179.527 35.07 180.627 34.41C181.764 33.75 182.662 32.815 183.322 31.605C184.019 30.3583 184.367 28.8917 184.367 27.205C184.367 25.4817 184.019 24.015 183.322 22.805C182.662 21.595 181.764 20.66 180.627 20C179.527 19.34 178.262 19.01 176.832 19.01C175.402 19.01 174.119 19.34 172.982 20C171.845 20.66 170.947 21.595 170.287 22.805C169.627 24.015 169.297 25.4817 169.297 27.205C169.297 28.8917 169.627 30.3583 170.287 31.605C170.947 32.815 171.845 33.75 172.982 34.41C174.119 35.07 175.402 35.4 176.832 35.4ZM212.93 42.44C209.777 42.44 206.972 41.78 204.515 40.46C202.095 39.14 200.17 37.3433 198.74 35.07C197.347 32.76 196.65 30.1383 196.65 27.205C196.65 24.235 197.347 21.6133 198.74 19.34C200.17 17.03 202.095 15.2333 204.515 13.95C206.972 12.63 209.777 11.97 212.93 11.97C216.047 11.97 218.834 12.63 221.29 13.95C223.747 15.2333 225.672 17.0117 227.065 19.285C228.459 21.5583 229.155 24.1983 229.155 27.205C229.155 30.1383 228.459 32.76 227.065 35.07C225.672 37.3433 223.747 39.14 221.29 40.46C218.834 41.78 216.047 42.44 212.93 42.44ZM212.93 35.4C214.36 35.4 215.644 35.07 216.78 34.41C217.917 33.75 218.815 32.815 219.475 31.605C220.135 30.3583 220.465 28.8917 220.465 27.205C220.465 25.4817 220.135 24.015 219.475 22.805C218.815 21.595 217.917 20.66 216.78 20C215.644 19.34 214.36 19.01 212.93 19.01C211.5 19.01 210.217 19.34 209.08 20C207.944 20.66 207.027 21.595 206.33 22.805C205.67 24.015 205.34 25.4817 205.34 27.205C205.34 28.8917 205.67 30.3583 206.33 31.605C207.027 32.815 207.944 33.75 209.08 34.41C210.217 35.07 211.5 35.4 212.93 35.4ZM235.057 42V12.41H243.582V30.01L257.992 12.41H265.857V42H257.332V24.4L242.977 42H235.057ZM249.907 9.22C246.68 9.22 244.26 8.52333 242.647 7.13C241.033 5.7 240.208 3.555 240.172 0.694997H245.782C245.818 1.94167 246.167 2.93167 246.827 3.665C247.487 4.39833 248.495 4.765 249.852 4.765C251.172 4.765 252.18 4.39833 252.877 3.665C253.61 2.93167 253.977 1.94167 253.977 0.694997H259.697C259.697 3.555 258.872 5.7 257.222 7.13C255.572 8.52333 253.133 9.22 249.907 9.22Z" fill="url(#paint0_linear_275_39)"/>
<defs>
<linearGradient id="paint0_linear_275_39" x1="270" y1="56" x2="-4" y2="-11" gradientUnits="userSpaceOnUse">
<stop offset="0.49337" stop-color="#590D3C"/>
<stop offset="1" stop-color="#BF1C81"/>
</linearGradient>
</defs>
</svg>
