<svg width="15" height="16" viewBox="0 0 15 16" fill="none" xmlns="http://www.w3.org/2000/svg">
<path d="M2.47794 0.0942211C2.125 0.226574 1.49265 0.704515 0.838235 1.35893C0.198529 1.99128 0 2.43981 0 3.25599C0 3.95452 0.125 4.32952 0.816176 5.72657C2.74265 9.59422 5.52941 12.3663 9.44853 14.3001C10.875 14.9986 11.4485 15.1751 12.0809 15.1089C12.9265 15.0207 13.4632 14.6677 14.3015 13.631C14.9265 12.8663 15 12.7045 15 12.153C15 11.6604 14.8162 11.2633 14.4338 10.9472C13.9853 10.5722 11.0441 8.97657 10.6397 8.88834C9.93382 8.74128 9.30147 9.10157 9.11029 9.77069C8.99265 10.1825 8.85294 10.3589 8.63235 10.3589C8.30147 10.3589 6.56618 8.81481 5.47794 7.5501C4.52941 6.44716 4.49265 6.24128 5.19853 6.01334C5.72059 5.83687 5.92647 5.68246 6.10294 5.32952C6.36765 4.77804 6.27941 4.35893 5.66912 3.35157C5.47059 3.02069 5.08824 2.31481 4.81618 1.79275C4.20588 0.630986 3.99265 0.344221 3.58088 0.145692C3.22059 -0.0307789 2.875 -0.0454845 2.47794 0.0942211Z" fill="#BBBBBB"/>
</svg>
