<svg width="13" height="15" viewBox="0 0 13 15" fill="none" xmlns="http://www.w3.org/2000/svg">
<path d="M5.41746 0.51539C4.36693 0.840827 3.57903 1.50312 3.11086 2.46801C2.57988 3.5528 2.60843 4.84884 3.17366 5.93934C3.49339 6.55024 4.16139 7.20112 4.78943 7.50372C5.90276 8.05182 7.10174 8.05182 8.21508 7.50372C9.18568 7.03554 9.95074 6.04782 10.1905 4.97445C10.3161 4.39779 10.2762 3.48429 10.0992 2.95331C9.73378 1.84568 8.79744 0.903631 7.70123 0.543937C7.41576 0.452587 7.15313 0.41833 6.58789 0.401202C5.94273 0.389783 5.78857 0.401202 5.41746 0.51539Z" fill="#BBBBBB"/>
<path d="M3.64874 9.09659C2.72381 9.25074 1.97588 9.61614 1.33643 10.2156C0.679843 10.8265 0.257346 11.5859 0.0746446 12.488C-0.159442 13.647 0.160286 14.4806 0.988151 14.8631L1.27933 15.0001H6.50345H11.7276L12.0187 14.8631C12.367 14.7032 12.681 14.3949 12.8466 14.0409C13.0978 13.5271 13.035 12.4994 12.6982 11.6772C12.3099 10.7238 11.4364 9.8331 10.4772 9.4106C9.76353 9.09659 9.77494 9.10229 6.67473 9.08517C5.08751 9.07946 3.72867 9.08517 3.64874 9.09659Z" fill="#BBBBBB"/>
</svg>
