<svg width="211" height="303" viewBox="0 0 211 303" fill="none" xmlns="http://www.w3.org/2000/svg">
<path d="M47.75 279.227L5 295.713V250.747L47.75 234.152V279.227ZM153.25 238.541L57.75 275.37V230.271L107.31 211.033L153.25 193.199V238.541ZM100.5 202.949L50.9404 222.188L5 240.021V195.08L54.5488 175.973L100.5 158.251V202.949ZM206 217.191L163.25 234.545V189.317L206 172.723V217.191ZM206 161.996L156.44 181.234L110.5 199.067V154.395L160.049 135.287L206 117.565V161.996ZM47.75 167.877L5 184.363V139.405L47.75 122.919V167.877ZM153.25 127.191L103.701 146.3L57.75 164.021V119.096L107.258 100.506L153.25 83.2354V127.191ZM100.5 92.3613L50.9922 110.951L50.9717 110.959L50.9512 110.968L5 128.688V83.7471L100.5 47.4023V92.3613ZM206 106.849L163.25 123.335V79.416L206 62.4961V106.849ZM206 51.7402L156.432 71.3594L110.5 88.6064V43.5967L206 7.25195V51.7402Z" stroke="white" stroke-width="10"/>
</svg>
